# xmcd
#
# Track frame offsets:
#	150
#	14664
#	26813
#	42852
#	56611
#
# Disc length: 925 seconds
# Revision: 0
# Processed by: cddbd v1.5.2PL0 Copyright (c) Steve Scherf et al.
# Submitted via: dBpowerAMP V12.0
#
DISCID=3d039b05
DTITLE=Silo Road - Silo Road
DYEAR=2014
DGENRE=Country
TTITLE0=Set Me Up
TTITLE1=Restless
TTITLE2=Heart Broke Refugee
TTITLE3=4 Quarters
TTITLE4=White Crosses
EXTD=
EXTT0=
EXTT1=
EXTT2=
EXTT3=
EXTT4=
PLAYORDER=
